<svg width="463" height="519" viewBox="0 0 463 519" fill="none" xmlns="http://www.w3.org/2000/svg">
<path d="M352.942 283.325C346.141 287.15 338.768 289.767 332.031 293.711C320.018 300.751 310.446 311.788 298.294 318.548C285.747 325.535 271.116 327.567 256.917 326.903C241.879 326.199 226.714 322.48 213.964 314.112C201.214 305.745 191.083 292.383 188.197 276.95C185.426 262.154 189.316 246.84 187.867 231.845C186.367 216.252 179.21 201.934 175.295 186.806C171.545 172.343 170.782 157.042 173.07 142.233C175.206 128.406 180.113 114.846 188.579 103.995C197.045 93.1434 209.286 85.1876 222.608 83.6735C241.04 81.5617 258.76 91.4964 277.243 93.1832C286.269 94.0067 295.345 92.8379 304.395 93.0504C320.361 93.4223 336.213 98.1373 349.967 106.611C361.586 113.783 372.035 124.13 376.42 137.465C379.471 146.722 379.408 156.736 379.675 166.512C380.196 185.372 381.263 205.242 385.611 223.623C389.157 238.632 383.602 251.807 374.615 263.947C368.755 271.876 361.37 278.57 352.942 283.325Z" fill="#FFF2F2"/>
<path d="M329.679 214.685C340.268 196.011 352.281 178.041 367.166 162.899C382.052 147.758 399.975 135.499 419.958 129.562C411.034 139.829 405.95 153.097 402.365 166.446C398.78 179.794 396.505 193.527 392.272 206.663C384.581 230.517 370.585 251.728 354.251 270.216C345.899 279.673 336.899 288.492 327.632 296.966C321.34 302.717 312.213 314.444 302.717 313.342C287.807 311.602 307.573 261.543 311.031 252.923C316.319 239.721 322.7 226.997 329.679 214.685Z" fill="#FFCCCC"/>
<path d="M419.958 129.562C419.958 129.562 336.887 208.19 302.705 313.355" stroke="black" stroke-width="0.5" stroke-miterlimit="10" stroke-linecap="round" stroke-linejoin="round"/>
<path d="M233.654 226.692C226.332 206.384 217.498 186.501 205.358 168.889C193.218 151.278 177.608 135.937 158.909 126.481C165.99 138.209 168.786 152.207 170.108 166.007C171.418 179.807 171.367 193.74 173.362 207.446C176.973 232.336 187.218 255.752 200.248 276.937C206.909 287.761 214.294 298.081 222.023 308.109C227.26 314.909 234.303 328.125 243.836 328.762C258.811 329.758 247.675 276.87 245.705 267.759C242.642 253.786 238.472 240.093 233.654 226.692Z" fill="#FFCCCC"/>
<path d="M158.897 126.481C158.897 126.481 227.629 219.002 243.799 328.762" stroke="black" stroke-width="0.5" stroke-miterlimit="10" stroke-linecap="round" stroke-linejoin="round"/>
<path d="M319.701 294.987C334.459 277.149 349.955 259.723 368.221 245.857C386.488 232.004 407.806 221.791 430.318 219.931C409.026 225.151 389.92 237.689 373.471 252.764C361.611 263.628 350.972 275.834 340.599 288.226C335.45 294.376 330.506 300.764 325.129 306.688C321.887 310.261 316.446 315.998 311.374 311.668C306.404 307.445 316.955 298.307 319.701 294.987Z" fill="#FF9999"/>
<path d="M239.235 323.927C231.824 301.654 223.587 279.473 211.511 259.551C199.435 239.628 183.227 221.91 162.977 211.497C180.914 224.567 194.248 243.599 204.202 263.934C211.384 278.61 216.951 294.057 222.201 309.57C224.807 317.273 227.146 325.11 230.044 332.693C231.799 337.262 234.824 344.687 241.066 342.628C247.193 340.623 240.621 328.058 239.235 323.927Z" fill="#FF9999"/>
<path d="M304.141 0.0249025C295.307 -0.174324 286.307 0.781963 278.146 4.34148C269.985 7.88771 262.714 14.263 259.18 22.7234C257.642 26.4025 256.841 30.3605 256.256 34.3184C254.006 49.5659 254.883 65.1056 254.756 80.539C254.616 95.9724 253.371 111.778 247.218 125.803C259.383 134.861 275.12 136.376 290.044 137.199C306.696 138.129 323.844 138.527 339.556 132.683C339.556 129.177 339.556 125.67 339.569 122.177C340.624 125.91 343.09 129.19 346.319 131.129C342.976 119.973 343.306 108.032 343.675 96.3576C344.031 85.0017 344.387 73.6458 344.743 62.2898C345.022 53.3246 345.302 44.2665 343.637 35.4739C340.98 21.3421 331.484 6.0681 317.654 1.93747C313.268 0.622575 308.679 0.131157 304.141 0.0249025Z" fill="#5E4028"/>
<path d="M259.866 426.463C261.976 428.242 263.209 431.324 262.383 434.02C267.099 433.993 271.815 432.944 276.15 430.992C276.086 430.607 276.036 430.221 275.972 429.81C275.909 429.424 275.858 429.026 275.794 428.628C274.904 422.744 273.849 415.186 274.078 411.893C274.396 407.257 274.726 403.047 275.044 399.129L256.167 400.178C256.345 402.901 256.46 405.039 256.472 406.327C256.523 410.06 256.51 413.872 255.379 417.418C254.565 419.994 253.129 421.814 251.438 423.474C251.171 423.727 250.904 423.979 250.625 424.231C251.159 424.152 251.693 424.098 252.227 424.085C254.934 424.045 257.756 424.683 259.866 426.463Z" fill="#F2B27E"/>
<path d="M276.137 430.992C271.802 432.944 267.099 434.007 262.37 434.02C263.197 431.324 261.964 428.242 259.853 426.463C257.743 424.683 254.921 424.045 252.214 424.085C251.68 424.099 251.146 424.152 250.612 424.231C250.078 424.71 249.544 425.201 248.972 425.679C248.654 425.958 248.324 426.237 247.993 426.516C246.036 428.216 242.082 430.447 238.307 432.612C234.404 434.857 230.693 437.022 229.574 438.443C227.794 440.714 227.133 444.154 230.032 445.602C234.621 447.899 241.32 447.514 246.176 446.558C251.896 445.442 257.375 443.264 263.108 442.255C266.578 441.644 276.925 441.936 276.887 436.397C276.887 436.185 276.811 435.614 276.697 434.804C276.582 433.847 276.379 432.519 276.137 430.992Z" fill="#FFF2F2"/>
<path d="M228.24 441.139C228.418 442.135 229.015 443.025 230.159 443.596C234.748 445.894 241.447 445.509 246.303 444.552C252.023 443.437 257.502 441.259 263.235 440.249C266.451 439.678 275.515 439.891 276.849 435.547" stroke="black" stroke-width="0.5" stroke-miterlimit="10" stroke-linecap="round" stroke-linejoin="round"/>
<path d="M271.281 423.049C270.862 425.148 269.514 427.02 267.696 428.017" stroke="black" stroke-width="0.5" stroke-miterlimit="10" stroke-linecap="round" stroke-linejoin="round"/>
<path d="M300.9 431.204C298.701 432.865 297.328 435.879 298.015 438.616C293.299 438.337 288.646 437.022 284.413 434.844C284.489 434.458 284.566 434.086 284.655 433.675C284.731 433.29 284.807 432.904 284.896 432.506C286.078 426.688 287.502 419.198 287.451 415.89C287.375 411.242 287.248 407.018 287.108 403.087L305.896 405.159C305.578 407.868 305.362 409.993 305.286 411.282C305.044 415.014 304.879 418.812 305.82 422.425C306.506 425.042 307.841 426.941 309.455 428.681C309.709 428.946 309.964 429.212 310.231 429.478C309.709 429.358 309.176 429.278 308.642 429.239C305.947 429.053 303.099 429.544 300.9 431.204Z" fill="#F2B27E"/>
<path d="M284.425 434.844C288.658 437.035 293.311 438.337 298.027 438.616C297.341 435.88 298.713 432.865 300.913 431.204C303.112 429.544 305.959 429.053 308.667 429.252C309.201 429.292 309.735 429.371 310.256 429.491C310.764 430.009 311.273 430.514 311.819 431.018C312.124 431.311 312.442 431.603 312.747 431.908C314.616 433.715 318.455 436.158 322.116 438.523C325.904 440.966 329.501 443.344 330.544 444.818C332.209 447.182 332.692 450.649 329.73 451.937C325.027 453.983 318.366 453.226 313.561 452.017C307.904 450.596 302.54 448.125 296.858 446.797C293.413 446 283.078 445.735 283.383 440.196C283.396 439.984 283.498 439.413 283.65 438.616C283.841 437.673 284.108 436.358 284.425 434.844Z" fill="#FFF2F2"/>
<path d="M331.751 447.567C331.522 448.564 330.887 449.414 329.717 449.918C325.014 451.964 318.353 451.207 313.548 449.998C307.891 448.577 302.527 446.106 296.845 444.778C293.667 444.035 284.603 443.756 283.484 439.346" stroke="black" stroke-width="0.5" stroke-miterlimit="10" stroke-linecap="round" stroke-linejoin="round"/>
<path d="M289.675 427.167C289.993 429.278 291.251 431.231 293.006 432.32" stroke="black" stroke-width="0.5" stroke-miterlimit="10" stroke-linecap="round" stroke-linejoin="round"/>
<path d="M248.985 199.039C229.206 239.801 240.379 307.896 240.405 327.288C240.43 346.679 250.663 421.336 250.663 421.336C250.663 421.336 254.718 424.019 262.663 425.334C270.621 426.649 276.811 422.399 276.811 422.399C276.811 422.399 275.985 342.15 276.277 325.003C276.557 307.857 282.099 253.786 282.099 253.786L281.222 202.997L248.985 199.039Z" fill="#CC9864"/>
<path d="M306.303 200.234C325.167 241.474 312.468 309.264 311.998 328.656C311.54 348.047 307.993 421.588 307.993 421.588C307.993 421.588 304.142 424.563 296.286 426.463C288.443 428.362 281.972 424.59 281.972 424.59C281.972 424.59 276.087 342.668 276.189 325.521C276.29 308.375 266.833 254.039 266.833 254.039L273.99 203.422L306.303 200.234Z" fill="#CC9864"/>
<path d="M276.481 336.359C276.29 331.711 276.176 327.952 276.188 325.508C276.29 308.361 266.832 254.026 266.832 254.026L246.748 245.831" stroke="black" stroke-width="0.5" stroke-miterlimit="10" stroke-linecap="round" stroke-linejoin="round"/>
<path d="M266.832 254.026L246.557 253.481" stroke="black" stroke-width="0.5" stroke-miterlimit="10" stroke-linecap="round" stroke-linejoin="round"/>
<path d="M311.362 244.356C303.086 237.994 298.001 226.453 298.408 214.924" stroke="black" stroke-width="0.5" stroke-miterlimit="10" stroke-linecap="round" stroke-linejoin="round"/>
<path d="M271.002 104.592C271.002 104.592 262.485 106.292 259.371 108.989C256.256 111.685 237.977 156.989 237.977 156.989C237.977 156.989 232.167 168.385 240.989 173.591C249.811 178.811 256.676 163.271 256.676 163.271L278.4 116.878L271.002 104.592Z" fill="#F2B27E"/>
<path d="M271.002 104.592C271.002 104.592 262.104 105.336 256.676 110.184C251.235 115.032 243.481 134.822 243.481 134.822C243.481 134.822 255.201 145.327 273.125 145.434C273.125 145.434 292.434 112.336 271.002 104.592Z" fill="#CF6969"/>
<path d="M279.315 100.581C282.29 98.7749 285.061 96.2779 286.599 92.2934C289.612 84.4704 287.108 78.042 287.108 78.042L306.811 68.0276C306.811 68.0276 302.095 90.6996 304.434 97.8983C304.891 99.3194 305.858 100.488 307.103 101.484C302.921 103.981 290.603 111.578 282.697 118.751C282.671 118.751 278.896 110.118 279.315 100.581Z" fill="#F2B27E"/>
<path d="M307.853 134.516C306.849 123.758 313.968 110.609 316.726 105.987C319.98 107.102 322.752 108.019 323.349 109.267C324.849 112.415 326.476 124.555 316.764 144.916C316.002 146.51 315.252 147.997 314.514 149.431C312.188 147.532 308.654 143.242 307.853 134.516Z" fill="#F2B27E"/>
<path d="M277.345 152.008C277.345 152.008 281.565 160.416 292.37 161.584" stroke="black" stroke-width="0.5" stroke-miterlimit="10" stroke-linecap="round" stroke-linejoin="round"/>
<path d="M290.298 190.393C290.298 190.393 276.862 212.135 261.188 208.482" stroke="black" stroke-width="0.5" stroke-miterlimit="10" stroke-linecap="round" stroke-linejoin="round"/>
<path d="M251.439 140.015C251.515 139.231 251.629 138.514 251.769 137.89C252.646 133.985 256.625 125.577 260.884 118.166" stroke="black" stroke-width="0.5" stroke-miterlimit="10" stroke-linecap="round" stroke-linejoin="round"/>
<path opacity="0.7" d="M289.103 93.502C288.023 93.4489 287.145 93.1301 286.446 92.6254C286.497 92.5059 286.548 92.4129 286.599 92.2934C289.612 84.4704 287.107 78.042 287.107 78.042L306.811 68.0276C306.811 68.0276 305.666 73.513 304.789 79.9413C302.107 84.2978 295.535 93.8208 289.103 93.502Z" fill="#F2B27E"/>
<path d="M320.285 184.735C317.934 172.635 314.514 149.445 314.514 149.445C314.514 149.445 308.654 143.256 307.84 134.516C306.836 123.758 313.955 110.609 316.713 105.987C314.145 105.11 311.273 104.114 308.908 102.746C308.247 102.361 307.637 101.949 307.078 101.498C302.896 103.995 290.578 111.592 282.671 118.764C282.671 118.764 278.883 110.131 279.315 100.594C278.883 100.847 278.451 101.099 278.019 101.325C275.54 102.666 272.998 103.609 270.989 104.592C266.184 106.943 253.421 130.492 251.756 137.89C250.536 143.282 251.794 155.501 252.57 161.757C234.417 165.37 220.892 183.088 219.494 204.724C217.854 230.105 227.985 280.323 227.985 280.323C227.985 280.323 237.1 289.886 264.951 293.432C292.802 296.979 326.044 288.93 326.044 288.93C326.044 288.93 329.539 232.323 320.285 184.735Z" fill="#CF6969"/>
<path d="M318.467 106.585C318.467 106.585 327.849 109.719 330.417 117.064C332.984 124.409 336.378 171.944 336.378 171.944C336.378 171.944 336.658 183.048 328.942 183.991C321.226 184.934 317.056 176.354 315.925 169.846C314.794 163.338 310.802 125.338 310.802 125.338L318.467 106.585Z" fill="#F2B27E"/>
<path d="M316.714 105.987C316.714 105.987 326.349 107.049 331.841 116.998C337.332 126.946 337.141 141.303 337.141 141.303C337.141 141.303 327.353 151.955 305.222 148.077C305.235 148.09 300.913 118.047 316.714 105.987Z" fill="#CF6969"/>
<path d="M313.358 148.914C310.853 148.847 308.146 148.595 305.222 148.077C305.222 148.077 303.595 136.734 306.01 125.179" stroke="black" stroke-width="0.5" stroke-miterlimit="10" stroke-linecap="round" stroke-linejoin="round"/>
<path d="M261.607 39.2859C256.116 60.2844 264.836 85.1478 276.633 88.5214C293.183 93.2497 316.001 79.3968 321.492 58.3983C326.984 37.3999 319.764 14.967 303.213 10.2386C286.65 5.51033 267.099 18.2874 261.607 39.2859Z" fill="#F2B27E"/>
<path d="M308.641 72.4505C307.218 77.8694 301.866 81.0571 296.68 79.5828C291.493 78.0952 288.442 72.5036 289.853 67.0846C291.277 61.6657 296.629 58.4781 301.815 59.9523C307.001 61.4266 310.065 67.0315 308.641 72.4505Z" fill="url(#paint0_radial_1_497)"/>
<path d="M271.737 54C266.359 54 262 58.555 262 64.1738C262 69.7927 266.359 74.3477 271.737 74.3477C277.115 74.3477 281.474 69.7927 281.474 64.1738C281.474 58.555 277.115 54 271.737 54Z" fill="url(#paint1_radial_1_497)"/>
<path d="M285.9 72.4771C285.9 72.4771 283.662 76.342 279.646 76.3952C275.629 76.4483 273.824 73.2076 273.824 73.2076" stroke="black" stroke-width="0.5" stroke-miterlimit="10" stroke-linecap="round" stroke-linejoin="round"/>
<path d="M280.713 49.3402C281.883 48.1316 283.141 47.1089 284.489 46.3651C285.849 45.6346 287.311 45.1963 288.785 45.2362C290.26 45.2362 291.734 45.6745 293.145 46.3385C294.569 47.0026 295.916 47.9058 297.302 48.8355C296.349 47.4409 295.141 46.2057 293.692 45.276C292.993 44.7846 292.192 44.4393 291.378 44.1205C290.552 43.8549 289.675 43.6955 288.798 43.6822C287.031 43.6556 285.277 44.2932 283.891 45.3291C282.506 46.3784 281.374 47.7597 280.713 49.3402Z" fill="#5E4028"/>
<path d="M272.489 49.3004C271.981 48.1183 271.193 47.0823 270.265 46.219C269.324 45.3557 268.18 44.6517 266.896 44.3197C266.273 44.147 265.561 44.0673 264.862 44.1736C264.163 44.2931 263.489 44.5853 262.955 45.0236C261.862 45.9002 261.252 47.1885 261.125 48.4769C261.849 47.4409 262.676 46.5776 263.604 46.0729C264.532 45.5682 265.51 45.5416 266.553 45.8205C267.595 46.0729 268.612 46.5643 269.604 47.1753C270.582 47.7862 271.523 48.5034 272.489 49.3004Z" fill="#5E4028"/>
<path d="M291.811 56.4592C291.811 56.4592 287.514 60.7094 282.29 56.7381" stroke="black" stroke-width="0.5" stroke-miterlimit="10" stroke-linecap="round" stroke-linejoin="round"/>
<path d="M272.731 56.6717C272.731 56.6717 269.489 60.4305 264.862 56.1803" stroke="black" stroke-width="0.5" stroke-miterlimit="10" stroke-linecap="round" stroke-linejoin="round"/>
<path d="M274.243 55.1576C274.917 57.1897 274.396 59.5937 272.947 61.1211C272.108 62.011 270.964 62.6485 270.43 63.7642C269.947 64.7869 270.074 66.0487 270.595 67.0448C271.116 68.0409 271.968 68.8113 272.909 69.409C272.909 69.409 275.845 69.9668 277.765 66.8589C279.684 63.7642 278.934 58.9164 277.765 55.8616C276.582 52.8067 274.243 55.1576 274.243 55.1576Z" fill="url(#paint2_linear_1_497)"/>
<path d="M274.243 55.1577C274.917 57.1898 274.396 59.5938 272.947 61.1212C272.108 62.0111 270.964 62.6486 270.43 63.7643C269.947 64.787 270.074 66.0488 270.595 67.0449C271.116 68.041 271.968 68.8114 272.909 69.409" stroke="black" stroke-width="0.5" stroke-miterlimit="10" stroke-linecap="round" stroke-linejoin="round"/>
<path d="M284.565 51.9433C286.345 51.4121 288.239 51.2792 290.082 51.5714" stroke="black" stroke-width="0.5" stroke-miterlimit="10" stroke-linecap="round" stroke-linejoin="round"/>
<path d="M270.328 51.7707C268.93 51.1464 267.43 50.9206 265.968 51.1332" stroke="black" stroke-width="0.5" stroke-miterlimit="10" stroke-linecap="round" stroke-linejoin="round"/>
<path d="M317.692 19.0975C308.858 8.326 293.781 5.32432 281.654 10.7964C274.879 13.8645 269.095 19.3499 264.888 26.0306C262.841 29.2846 260.858 33.0168 259.777 36.842C259.472 37.9443 258.722 41.9687 258.722 41.9687C258.722 41.9687 261.277 38.7147 266.832 32.7379C271.866 27.3189 275.26 26.2431 275.26 26.2431C275.032 34.345 280.498 42.1414 287.54 43.7485C286.752 41.6898 286.472 39.3921 286.726 37.174C289.561 42.2078 294.366 45.4884 299.4 47.2814C304.447 49.0612 309.785 49.4995 315.061 49.9245C316.688 54.1083 318.913 57.9865 321.62 61.3867C323.857 60.2843 324.811 57.3225 325.319 54.6263C327.658 42.2344 325.307 28.3948 317.692 19.0975Z" fill="#5E4028"/>
<path d="M316.319 56.1803C312.9 61.8914 312.086 67.5495 315.964 70.073C319.841 72.6098 326.947 71.0559 330.353 65.3447C333.773 59.6335 333.404 52.9528 329.527 50.4293C325.65 47.8924 319.739 50.4691 316.319 56.1803Z" fill="#F2B27E"/>
<path d="M332.044 53.6701C332.044 53.6701 324.417 53.2583 316.459 65.5971" stroke="black" stroke-width="0.5" stroke-miterlimit="10" stroke-linecap="round" stroke-linejoin="round"/>
<path d="M294.379 18.6593C301.51 20.9703 308.108 24.7423 314.756 28.2885C321.404 31.8348 328.256 35.2083 335.603 36.6029C338.324 37.1209 341.133 37.3467 343.917 37.2006C343.828 36.6295 343.752 36.0451 343.637 35.474C342.696 30.4933 340.904 25.3931 338.374 20.6648C329.819 22.0461 321.074 21.7539 312.786 19.164C309.023 17.9952 305.413 16.3748 301.765 14.8607C292.625 11.0621 283.091 7.88774 273.354 6.8252C268.473 9.78703 264.176 13.8247 261.201 18.7522C271.917 15.2326 283.663 15.1794 294.379 18.6593Z" fill="#5E4028"/>
<path d="M260.439 149.126C266.35 148.156 272.782 148.94 278.553 150.467C280.574 150.999 282.761 151.849 283.701 153.788C283.828 154.04 283.917 154.306 284.095 154.518C284.299 154.771 284.578 154.93 284.845 155.09C286.511 156.099 286.917 157.308 287.68 158.941C288.252 160.163 288.672 161.93 287.044 162.634C287.794 163.696 286.867 165.303 285.659 165.675C284.451 166.047 283.155 165.595 281.96 165.21C280.269 164.666 278.553 164.214 276.812 163.869C275.858 163.683 274.892 163.523 273.926 163.59C271.956 163.723 270.151 164.772 268.282 165.409C263.019 167.216 257.274 167.335 251.858 166.246C249.316 165.728 245.426 165.781 243.71 163.444C242.808 162.209 241.282 159.061 241.702 157.427C241.575 154.957 242.884 154.505 244.943 153.987C250.142 152.699 255.113 149.989 260.439 149.126Z" fill="#F2B27E"/>
<path d="M283.625 155.129C279.888 153.775 276.049 152.752 272.159 152.075" stroke="#333333" stroke-width="0.5" stroke-miterlimit="10" stroke-linecap="round" stroke-linejoin="round"/>
<path d="M286.371 159.247C282.252 157.586 277.994 156.285 273.672 155.368" stroke="#333333" stroke-width="0.5" stroke-miterlimit="10" stroke-linecap="round" stroke-linejoin="round"/>
<path d="M286.295 162.713C282.341 160.96 278.159 159.778 273.901 159.207" stroke="#333333" stroke-width="0.5" stroke-miterlimit="10" stroke-linecap="round" stroke-linejoin="round"/>
<path d="M299.399 214.658C295.547 217.354 292.84 221.246 289.624 224.673C287.869 226.545 286.103 228.418 284.018 229.879C282.162 231.194 280.331 232.35 278.209 233.186C275.704 234.182 273.2 235.179 270.709 236.175C269.92 236.494 269.12 236.812 268.281 236.852C267.442 236.892 266.539 236.613 266.018 235.922C265.115 236.148 264.187 236.387 263.26 236.321C262.332 236.254 261.378 235.843 260.857 235.033C260.743 234.86 260.654 234.661 260.488 234.554C260.349 234.461 260.171 234.435 260.018 234.368C259.446 234.143 259.141 233.452 259.154 232.814C259.166 232.177 259.433 231.579 259.726 231.008C259.281 230.743 259.179 230.105 259.293 229.587C259.459 228.883 259.942 228.299 260.527 227.887C261.099 227.475 261.76 227.223 262.408 226.97C263.679 226.479 264.937 226.001 266.209 225.496C267.2 225.111 268.192 224.726 269.107 224.181C270.874 223.132 272.272 221.538 273.492 219.865C274.065 219.081 274.573 218.244 275.196 217.514C275.577 217.076 276.111 216.491 275.857 215.814C275.577 215.043 274.573 214.964 273.798 215.097C270.658 215.668 267.912 217.78 264.747 218.258C264.264 218.337 263.692 218.337 263.349 217.979C262.751 217.341 263.298 216.305 263.857 215.628C265.802 213.224 267.81 210.78 270.429 209.213C274.916 206.53 280.42 205.308 285.442 204.272C288.213 203.701 290.933 203.342 293.564 202.585C293.564 202.585 308.323 179.408 316.687 172.954C316.687 172.954 326.208 161.491 336.378 171.918C336.378 171.918 337.954 178.864 331.839 187.417C325.738 196.011 299.399 214.658 299.399 214.658Z" fill="#F2B27E"/>
<path d="M260.044 230.928C264.137 230.304 268.141 229.096 271.916 227.342" stroke="#333333" stroke-width="0.5" stroke-miterlimit="10" stroke-linecap="round" stroke-linejoin="round"/>
<path d="M260.946 234.461C265.421 233.465 269.781 231.871 273.887 229.76" stroke="#333333" stroke-width="0.5" stroke-miterlimit="10" stroke-linecap="round" stroke-linejoin="round"/>
<path d="M266.425 235.524C269.844 234.528 273.175 233.239 276.391 231.659" stroke="#333333" stroke-width="0.5" stroke-miterlimit="10" stroke-linecap="round" stroke-linejoin="round"/>
<path d="M316.726 172.701C318.989 170.616 321.772 169.168 324.722 168.544" stroke="#333333" stroke-width="0.5" stroke-miterlimit="10" stroke-linecap="round" stroke-linejoin="round"/>
<path d="M304.523 86.1704C305.235 93.5152 301.713 100.475 299.489 107.488C296.807 115.935 295.93 125.006 296.959 133.852C301.955 134.928 307.103 135.273 312.201 134.861C311.794 129.721 311.667 124.382 313.434 119.574C315.391 114.235 319.459 110.064 322.014 105.017C324.111 100.873 325.154 96.145 324.989 91.4566" fill="#5E4028"/>
<path d="M320.832 107.142C321.252 106.452 321.646 105.748 322.014 105.017C324.112 100.873 325.154 96.1451 324.989 91.4567" stroke="black" stroke-width="0.5" stroke-miterlimit="10" stroke-linecap="round" stroke-linejoin="round"/>
<path d="M375.899 122.988C375.899 127.052 372.747 130.346 368.857 130.346C364.967 130.346 361.815 127.052 361.815 122.988C361.815 118.923 364.967 115.63 368.857 115.63C372.747 115.63 375.899 118.923 375.899 122.988Z" stroke="#333333" stroke-width="0.5" stroke-miterlimit="10" stroke-linecap="round" stroke-linejoin="round"/>
<path d="M241.587 44.1204C241.587 48.1847 238.434 51.4785 234.544 51.4785C230.655 51.4785 227.502 48.1847 227.502 44.1204C227.502 40.0562 230.655 36.7623 234.544 36.7623C238.434 36.7623 241.587 40.0562 241.587 44.1204Z" stroke="#333333" stroke-width="0.5" stroke-miterlimit="10" stroke-linecap="round" stroke-linejoin="round"/>
<path d="M223.867 64.654C223.867 65.9689 222.85 67.0315 221.591 67.0315C220.333 67.0315 219.316 65.9689 219.316 64.654C219.316 63.3392 220.333 62.2766 221.591 62.2766C222.85 62.2766 223.867 63.3392 223.867 64.654Z" fill="#333333"/>
<path d="M366.365 91.4567C366.365 92.7716 365.349 93.8341 364.09 93.8341C362.832 93.8341 361.815 92.7716 361.815 91.4567C361.815 90.1418 362.832 89.0792 364.09 89.0792C365.349 89.0792 366.365 90.1418 366.365 91.4567Z" fill="#333333"/>
<path d="M98.8591 205.672C92.7956 210.679 87.571 216.722 81.4313 221.61C70.4864 230.336 56.9993 235.144 46.2197 244.109C35.0969 253.366 27.5207 266.595 22.4742 280.488C17.1225 295.191 14.3768 311.209 16.6649 326.761C18.953 342.314 26.669 357.323 39.0884 366.222C50.9866 374.749 65.9865 377.099 78.5838 384.431C91.6897 392.055 101.427 404.593 113.16 414.355C124.384 423.692 137.528 430.492 151.435 434.171C164.426 437.598 178.282 438.275 191.185 434.463C204.074 430.651 215.922 422.058 222.544 409.892C231.71 393.051 230.006 372.119 235.854 353.723C238.714 344.745 243.328 336.497 246.735 327.731C252.748 312.271 254.883 295.204 252.9 278.642C251.209 264.656 246.265 250.524 236.286 241.028C229.358 234.427 220.549 230.522 212.057 226.378C195.697 218.396 178.663 209.483 164.236 198.021C152.452 188.658 138.685 188.777 124.448 192.562C115.181 195.033 106.372 199.469 98.8591 205.672Z" fill="#FFF2F2"/>
<path d="M136.906 391.802C137.02 394.246 137.528 396.73 138.914 398.696C143.274 404.845 147.113 399.28 149.846 395.136C160.473 379.039 166.46 360.192 173.401 342.022C190.32 297.794 242.451 219.325 242.451 219.325C242.451 219.325 234.964 226.086 231.557 229.366C227.845 232.939 224.223 236.592 220.663 240.337C213.57 247.828 206.795 255.638 200.363 263.766C187.498 280.01 176.02 297.435 166.092 315.791C159.634 327.718 153.838 340.03 148.753 352.661C146.249 358.877 143.91 365.172 141.749 371.521C139.626 377.75 136.753 384.311 136.88 391.019C136.88 391.271 136.893 391.537 136.906 391.802Z" fill="#FF9999"/>
<path d="M133.067 398.443C132.952 400.887 132.444 403.371 131.058 405.336C126.698 411.486 122.859 405.921 120.126 401.777C109.499 385.679 103.512 366.833 96.5711 348.663C79.6517 304.435 27.5208 225.966 27.5208 225.966C27.5208 225.966 35.008 232.727 38.4148 236.007C42.1266 239.58 45.7495 243.232 49.3088 246.978C56.4019 254.469 63.1773 262.279 69.6094 270.407C82.4737 286.651 93.9524 304.076 103.88 322.432C110.338 334.359 116.134 346.671 121.219 359.302C123.723 365.518 126.062 371.813 128.223 378.162C130.346 384.391 133.219 390.952 133.092 397.66C133.092 397.912 133.079 398.178 133.067 398.443Z" fill="#FF9999"/>
<path d="M262.447 234.055C262.447 234.055 236.935 269.929 228.685 290.901C223.524 304.01 218.566 317.199 213.799 330.48C208.676 344.745 203.744 359.169 196.664 372.384C189.583 385.6 180.139 397.699 167.884 405.124C159.05 410.477 126.686 420.504 131.186 398.324C134.656 381.204 143.351 363.672 151.156 348.517C167.478 316.827 189.469 288.643 215.541 266.064C222.888 259.702 230.566 253.792 238.524 248.373C245.871 243.365 262.447 234.055 262.447 234.055Z" fill="#FFCCCC"/>
<path d="M260.324 234.918C203.287 276.742 163.054 341.85 137.414 411.499" stroke="black" stroke-width="0.5" stroke-miterlimit="10" stroke-linecap="round" stroke-linejoin="round"/>
<path d="M0 246.646C0 246.646 26.1735 282.002 34.8048 302.801C40.1946 315.804 45.4064 328.887 50.4148 342.076C55.7919 356.234 60.991 370.565 68.313 383.634C75.6349 396.703 85.2959 408.617 97.6898 415.789C106.626 420.969 139.156 430.346 134.262 408.259C130.473 391.205 121.461 373.859 113.376 358.85C96.4822 327.492 73.9824 299.746 47.5038 277.699C40.042 271.483 32.2624 265.719 24.2032 260.472C16.7414 255.624 0 246.646 0 246.646Z" fill="#FFCCCC"/>
<path d="M2.1358 247.469C59.9234 288.152 101.338 352.435 128.249 421.567" stroke="black" stroke-width="0.5" stroke-miterlimit="10" stroke-linecap="round" stroke-linejoin="round"/>
<path d="M115.372 502.32C155.655 502.32 188.312 468.199 188.312 426.109C188.312 384.019 155.655 349.898 115.372 349.898C75.0881 349.898 42.4318 384.019 42.4318 426.109C42.4318 468.199 75.0881 502.32 115.372 502.32Z" fill="#FFB2B2"/>
<path d="M183.1 397.779C172.333 414.541 146.071 426.388 115.372 426.388C84.6731 426.388 58.4106 414.541 47.6437 397.779" stroke="black" stroke-width="0.5" stroke-miterlimit="10" stroke-linecap="round" stroke-linejoin="round"/>
<path d="M188.249 428.048C186.621 452.301 154.613 471.639 115.372 471.639C78.7495 471.639 48.4319 454.785 43.2201 432.83" stroke="black" stroke-width="0.5" stroke-miterlimit="10" stroke-linecap="round" stroke-linejoin="round"/>
<path d="M150.532 138.001C145.626 127.283 134.211 121.704 123.291 118.384C115.55 116.033 107.262 114.373 99.4948 116.604C94.4609 118.039 89.7703 121.518 87.0881 126.074C81.3551 126.765 76.0162 131.214 72.8128 136.487C67.9951 144.429 66.5332 154.138 66.6603 163.529C66.7874 172.932 68.3764 182.229 69.1772 191.593C69.6603 197.278 69.851 203.055 68.6179 208.62C67.3468 214.318 64.6392 219.538 62.529 224.97C59.0841 233.816 57.2918 244.202 61.4231 252.729C63.0248 256.049 65.4781 258.918 68.4527 260.95C72.6857 263.846 78.1263 265.28 80.9229 269.69C83.4907 273.754 83.0585 279.306 85.639 283.357C88.3212 287.567 93.533 289.081 98.3507 289.666C102.113 290.13 106.118 290.184 109.448 288.311C113.884 285.827 116.122 280.607 119.668 276.862C126.431 269.716 137.554 268.401 143.922 260.857C149.363 254.416 149.999 244.826 148.27 236.419C146.935 229.911 144.342 223.456 145.105 216.842C145.816 210.679 149.35 205.247 150.685 199.19C152.096 192.802 150.977 186.134 151.028 179.586C151.079 165.547 156.329 150.672 150.532 138.001Z" fill="#38322E"/>
<path d="M141.266 130.218C135.215 124.188 127.003 120.841 118.69 119.898C109.423 118.849 99.4313 120.921 92.5669 127.495C84.889 134.853 82.3467 146.488 82.4738 157.366C82.5247 161.895 83.0077 166.557 85.0543 170.555C87.1009 174.552 91.0288 177.753 95.3635 177.714L96.355 174.831C97.5245 169.001 100.118 163.329 104.427 159.438C107.846 156.343 112.143 154.524 116.414 152.943C120.685 151.362 125.058 149.955 128.935 147.511C132.812 145.067 136.219 141.388 137.312 136.792C142.384 141.693 146.706 147.458 150.037 153.78C150.977 145.107 147.316 136.248 141.266 130.218Z" fill="#FFB2B2"/>
<path d="M183.062 497.804C183.215 496.848 183.456 495.546 183.723 494.019C183.787 493.647 183.863 493.262 183.926 492.85C183.99 492.465 184.066 492.08 184.13 491.681C185.134 485.877 186.011 478.399 186.189 475.119C186.253 473.95 186.291 472.715 186.304 471.427C187.549 472.184 188.935 472.741 190.359 473.06C192.647 473.578 195.011 473.631 197.35 473.631C199.27 473.631 201.405 473.498 202.994 472.529C202.981 472.702 202.969 472.848 202.981 472.967C203.109 479.157 206.757 485.452 208.397 487.126C208.651 487.391 208.918 487.644 209.185 487.896C209.706 488.387 210.227 488.879 210.774 489.37C211.092 489.649 211.409 489.941 211.727 490.22C213.634 491.947 217.511 494.258 221.21 496.489C225.036 498.8 228.672 501.032 229.752 502.479C231.468 504.777 232.053 508.204 229.155 509.572C224.553 511.75 217.918 511.205 213.125 510.156C207.481 508.921 202.092 506.636 196.422 505.508C192.99 504.817 182.732 504.87 182.884 499.385C182.846 499.185 182.922 498.614 183.062 497.804Z" fill="#FFB2B2"/>
<path d="M207.227 451.557C204.914 462.103 203.159 470.059 202.969 472.542C201.38 473.512 199.244 473.658 197.325 473.645C194.986 473.645 192.621 473.591 190.333 473.073C188.909 472.755 187.537 472.197 186.278 471.44C186.367 465.29 185.986 457.826 185.515 449.791L207.227 451.557Z" fill="#F2B27E"/>
<path d="M188.707 486.262C189.075 488.347 190.384 490.233 192.164 491.269" stroke="black" stroke-width="0.5" stroke-miterlimit="10" stroke-linecap="round" stroke-linejoin="round"/>
<path d="M221.642 492.903C221.744 491.947 221.896 490.619 222.074 489.091C222.112 488.706 222.163 488.321 222.214 487.923C222.252 487.537 222.303 487.152 222.354 486.741C223.015 480.883 223.46 473.366 223.447 470.085C223.447 468.916 223.396 467.668 223.346 466.393C224.642 467.07 226.053 467.535 227.49 467.761C229.803 468.133 232.155 468.026 234.494 467.88C236.413 467.761 238.536 467.482 240.061 466.419C240.061 466.592 240.061 466.738 240.074 466.858C240.557 473.02 244.561 479.077 246.303 480.644C246.57 480.883 246.862 481.122 247.142 481.361C247.689 481.826 248.235 482.278 248.82 482.729C249.15 482.995 249.481 483.247 249.811 483.526C251.82 485.133 255.811 487.192 259.638 489.184C263.591 491.243 267.354 493.249 268.51 494.617C270.366 496.795 271.142 500.182 268.32 501.736C263.858 504.193 257.197 504.073 252.354 503.343C246.646 502.466 241.142 500.527 235.409 499.757C231.939 499.292 221.706 499.996 221.528 494.497C221.515 494.285 221.566 493.713 221.642 492.903Z" fill="#FFB2B2"/>
<path d="M243.087 445.208C241.396 455.874 240.099 463.936 240.061 466.419C238.536 467.495 236.413 467.761 234.493 467.88C232.155 468.027 229.803 468.133 227.489 467.761C226.053 467.522 224.642 467.07 223.345 466.393C223.078 460.243 222.265 452.819 221.324 444.837L243.087 445.208Z" fill="#F2B27E"/>
<path d="M226.613 481.029C227.108 483.088 228.519 484.894 230.35 485.811" stroke="black" stroke-width="0.5" stroke-miterlimit="10" stroke-linecap="round" stroke-linejoin="round"/>
<path d="M180.99 310.478L148.639 281.63C148.639 281.63 152.211 251.693 150.673 239.328C149.211 227.587 143.236 226.378 132.05 220.481C122.262 215.328 117.558 287.341 122.173 296.399C126.787 305.471 173.605 321.356 173.605 321.356" fill="#B27449"/>
<path d="M148.524 281.643C146.973 282.135 145.512 282.945 144.266 284.008" stroke="black" stroke-width="0.4174" stroke-miterlimit="10" stroke-linecap="round" stroke-linejoin="round"/>
<path d="M129.482 370.379C151.778 384.803 214.892 373.049 214.892 373.049C214.892 373.049 212.451 377.538 213.214 400.077C213.977 422.669 219.303 459.539 219.303 459.539C219.303 459.539 221.134 464.746 229.778 465.795C238.421 466.844 243.417 462.674 243.417 462.674C243.417 462.674 257.642 369.901 250.358 354.946C243.087 339.99 165.367 325.991 165.367 325.991L128.605 314.688C128.605 314.675 107.185 355.955 129.482 370.379Z" fill="#CF6969"/>
<path d="M100.092 366.673C121.105 383.063 184.956 377.086 184.956 377.086C184.956 377.086 182.147 381.336 181.041 403.862C179.922 426.428 182.159 463.643 182.159 463.643C182.159 463.643 183.545 468.996 192.062 470.816C200.579 472.649 205.905 468.943 205.905 468.943C205.905 468.943 224.96 378.348 224.235 362.476C223.511 346.605 139.537 325.686 139.537 325.686L103.855 311.089C103.842 311.116 79.0797 350.284 100.092 366.673Z" fill="#CF6969"/>
<path d="M214.816 424.449C219.671 399.081 224.616 370.737 224.235 362.503C223.854 354.228 200.833 344.572 178.879 337.228" stroke="black" stroke-width="0.5" stroke-miterlimit="10" stroke-linecap="round" stroke-linejoin="round"/>
<path d="M132.711 252.038C144.202 250.232 134.859 226.949 132.037 220.494C128.719 218.528 125.516 215.806 123.965 211.263C121.309 203.44 124.016 197.224 124.016 197.224L105.05 186.559C105.05 186.559 108.813 209.045 106.232 216.018C105.495 218.01 103.766 219.458 101.631 220.587C106.029 228.357 121.397 253.818 132.711 252.038Z" fill="#B27449"/>
<path d="M154.563 273.86C155.834 268.933 157.245 261.933 156.444 257.537C155.084 250.192 143.465 226.524 138.825 224.001C136.881 222.951 134.44 221.915 132.05 220.494C134.872 226.936 144.202 250.232 132.724 252.038C121.41 253.818 106.042 228.357 101.631 220.587C99.2664 221.836 96.4063 222.699 93.8385 223.443C96.3682 228.105 102.851 241.333 101.453 251.852C100.322 260.393 96.686 264.457 94.3216 266.237C102.228 283.158 108.8 289.48 104.999 300.955C100.881 313.4 96.6987 319.895 96.6987 319.895C96.6987 319.895 115.449 337.241 141.508 338.702C167.567 340.163 178.88 325.075 178.88 306.68C178.88 290.197 168.368 276.517 154.563 273.86Z" fill="#FFB2B2"/>
<path d="M101.453 251.852C102.851 241.32 96.3679 228.105 93.8383 223.443C90.5968 224.399 87.8383 225.183 87.2027 226.391C85.6138 229.419 83.5418 241.28 92.3002 261.707C92.9866 263.301 93.6603 264.802 94.334 266.236C96.6857 264.457 100.321 260.406 101.453 251.852Z" fill="#B27449"/>
<path d="M130.753 270.341C130.753 270.341 126.278 278.429 115.626 279.12" stroke="black" stroke-width="0.5" stroke-miterlimit="10" stroke-linecap="round" stroke-linejoin="round"/>
<path d="M116.542 307.503C116.542 307.503 128.91 329.431 144.457 326.509" stroke="black" stroke-width="0.5" stroke-miterlimit="10" stroke-linecap="round" stroke-linejoin="round"/>
<path opacity="0.6" d="M121.448 212.339C122.503 212.339 123.38 212.06 124.092 211.595C124.054 211.476 124.003 211.37 123.965 211.263C121.308 203.44 124.016 197.224 124.016 197.224L105.05 186.559C105.05 186.559 105.965 191.991 106.575 198.353C109.029 202.75 115.118 212.379 121.448 212.339Z" fill="#B27449"/>
<path d="M150.533 157.1C155.897 177.846 147.24 202.364 135.571 205.658C119.211 210.28 96.7364 196.534 91.372 175.788C86.0077 155.041 93.1898 132.914 109.55 128.292C125.897 123.683 145.168 136.354 150.533 157.1Z" fill="#B27449"/>
<path d="M104.02 189.694C105.406 195.046 110.681 198.207 115.804 196.759C120.927 195.312 123.952 189.8 122.567 184.447C121.181 179.095 115.906 175.934 110.783 177.381C105.66 178.829 102.635 184.341 104.02 189.694Z" fill="url(#paint3_radial_1_497)"/>
<path d="M131.046 187.746C132.431 193.099 137.707 196.26 142.83 194.812C147.952 193.364 150.978 187.852 149.592 182.5C148.207 177.147 142.931 173.986 137.808 175.434C132.686 176.882 129.66 182.394 131.046 187.746Z" fill="url(#paint4_radial_1_497)"/>
<path d="M126.469 189.786C126.469 189.786 128.668 193.612 132.634 193.665C136.6 193.718 138.393 190.53 138.393 190.53" stroke="black" stroke-width="0.5" stroke-miterlimit="10" stroke-linecap="round" stroke-linejoin="round"/>
<path d="M128.656 172.467C129.152 174.366 128.071 176.332 126.253 176.85C124.436 177.368 122.554 176.239 122.059 174.34C121.563 172.44 122.643 170.475 124.461 169.957C126.279 169.439 128.16 170.568 128.656 172.467Z" fill="black"/>
<path d="M147.774 172.547C148.27 174.446 147.189 176.412 145.371 176.93C143.554 177.448 141.672 176.319 141.176 174.42C140.681 172.52 141.761 170.555 143.579 170.037C145.409 169.519 147.291 170.634 147.774 172.547Z" fill="black"/>
<path d="M130.791 165.335C129.647 164.139 128.401 163.13 127.067 162.386C125.732 161.669 124.295 161.217 122.834 161.257C121.372 161.244 119.923 161.682 118.524 162.333C117.126 162.984 115.791 163.874 114.418 164.777C115.372 163.396 116.567 162.187 117.99 161.27C118.69 160.779 119.478 160.447 120.279 160.142C121.105 159.889 121.957 159.73 122.834 159.717C124.588 159.703 126.304 160.327 127.677 161.363C129.037 162.413 130.143 163.781 130.791 165.335Z" fill="#38322E"/>
<path d="M140.516 164.378C141.012 163.21 141.8 162.2 142.728 161.337C143.656 160.487 144.787 159.796 146.058 159.464C146.681 159.292 147.38 159.212 148.067 159.331C148.753 159.451 149.414 159.743 149.948 160.181C151.029 161.045 151.626 162.32 151.753 163.595C151.029 162.572 150.228 161.709 149.313 161.217C148.397 160.726 147.431 160.686 146.402 160.952C145.372 161.191 144.368 161.682 143.389 162.28C142.41 162.891 141.469 163.595 140.516 164.378Z" fill="#38322E"/>
<path d="M121.041 170.807C121.041 170.807 125.045 167.938 128.795 171.843" stroke="black" stroke-width="0.5" stroke-miterlimit="10" stroke-linecap="round" stroke-linejoin="round"/>
<path d="M140.592 170.794C140.592 170.794 143.998 167.779 147.469 171.418" stroke="black" stroke-width="0.5" stroke-miterlimit="10" stroke-linecap="round" stroke-linejoin="round"/>
<path d="M138.011 172.719C137.338 174.725 137.859 177.102 139.27 178.603C140.096 179.48 141.228 180.117 141.749 181.22C142.232 182.229 142.092 183.478 141.583 184.46C141.075 185.443 140.223 186.2 139.295 186.785C139.295 186.785 136.397 187.316 134.503 184.261C132.609 181.193 133.372 176.425 134.541 173.41C135.711 170.395 138.011 172.719 138.011 172.719Z" fill="url(#paint5_linear_1_497)"/>
<path d="M138.012 172.719C137.338 174.725 137.859 177.102 139.27 178.603C140.096 179.48 141.228 180.117 141.749 181.22C142.232 182.229 142.092 183.478 141.584 184.46C141.075 185.443 140.224 186.2 139.296 186.785" stroke="black" stroke-width="0.5" stroke-miterlimit="10" stroke-linecap="round" stroke-linejoin="round"/>
<path d="M143.3 135.278C137.249 129.248 129.037 125.901 120.724 124.958C111.457 123.909 101.466 125.981 94.6012 132.555C86.9233 139.914 84.3809 151.548 84.508 162.426C84.5589 166.955 85.0419 171.617 87.0885 175.615C89.1351 179.613 93.0631 182.814 97.3978 182.774L98.3893 179.892C99.5588 174.061 102.152 168.39 106.461 164.498C109.881 161.403 114.177 159.584 118.448 158.003C122.72 156.423 127.092 155.015 130.97 152.571C134.847 150.127 138.253 146.448 139.347 141.853C144.419 146.754 148.728 152.518 152.071 158.84C153.012 150.167 149.351 141.308 143.3 135.278Z" fill="#38322E"/>
<path d="M96.4826 173.609C99.8385 179.254 100.639 184.846 96.8004 187.33C92.9742 189.813 85.9573 188.273 82.6014 182.628C79.2455 176.983 79.6269 170.395 83.4531 167.898C87.292 165.415 93.114 167.965 96.4826 173.609Z" fill="#B27449"/>
<path d="M80.9615 171.086C80.9615 171.086 88.4868 170.701 96.3173 182.907" stroke="black" stroke-width="0.5" stroke-miterlimit="10" stroke-linecap="round" stroke-linejoin="round"/>
<path d="M134.249 128.903C132.889 129.049 131.529 129.301 130.182 129.673C122.694 131.745 116.529 137.177 109.588 140.764C102.546 144.416 94.614 146.103 86.7582 145.758C85.7539 148.945 85.1183 152.305 84.7878 155.692C92.1607 155.745 99.3937 152.85 106.144 149.583C113.733 145.917 121.232 141.653 129.482 140.246C135.673 139.196 142.029 139.821 148.118 141.494C146.783 139.21 145.156 137.098 143.3 135.252C140.643 132.635 137.554 130.537 134.249 128.903Z" fill="#38322E"/>
<path d="M143.274 319.191L98.0203 290.356C98.0203 290.356 104.351 252.384 105.177 239.952C105.952 228.144 97.4864 221.53 87.4822 226.232C77.4781 230.92 72.9654 295.005 77.5798 304.076C82.1942 313.148 137.045 332.207 137.045 332.207" fill="#B27449"/>
<path d="M97.9187 290.343C96.3043 290.502 94.728 290.994 93.2916 291.777" stroke="black" stroke-width="0.4174" stroke-miterlimit="10" stroke-linecap="round" stroke-linejoin="round"/>
<path d="M155.211 319.324C161.643 320.333 168.062 323.308 173.566 326.855C175.498 328.09 177.507 329.71 177.876 332.048C177.926 332.353 177.939 332.659 178.054 332.938C178.181 333.27 178.422 333.522 178.651 333.788C180.062 335.395 180.113 336.789 180.392 338.755C180.609 340.216 180.494 342.182 178.587 342.368C179.032 343.722 177.57 345.077 176.198 345.051C174.825 345.024 173.63 344.121 172.498 343.311C170.922 342.168 169.27 341.119 167.579 340.176C166.651 339.658 165.698 339.167 164.668 338.901C162.583 338.37 160.397 338.848 158.249 338.875C152.236 338.968 146.236 337.148 140.961 334.173C138.482 332.778 134.439 331.516 133.384 328.501C132.825 326.921 132.228 323.122 133.168 321.582C133.804 318.978 135.304 318.952 137.605 319.111C143.427 319.55 149.427 318.421 155.211 319.324Z" fill="#B27449"/>
<path d="M177.393 333.416C173.948 330.746 170.274 328.382 166.448 326.35" stroke="#333333" stroke-width="0.5" stroke-miterlimit="10" stroke-linecap="round" stroke-linejoin="round"/>
<path d="M178.944 338.622C175.181 335.501 171.177 332.712 166.982 330.295" stroke="#333333" stroke-width="0.5" stroke-miterlimit="10" stroke-linecap="round" stroke-linejoin="round"/>
<path d="M177.8 342.182C174.253 339.021 170.274 336.378 166.041 334.345" stroke="#333333" stroke-width="0.5" stroke-miterlimit="10" stroke-linecap="round" stroke-linejoin="round"/>
<path d="M216.303 336.112C215.973 335.182 215.375 334.399 214.778 333.615C215.172 332.818 215.032 331.835 214.638 331.038C214.244 330.241 213.621 329.604 213.011 328.98C211.066 326.987 209.121 324.995 207.176 323.003C205.536 321.316 203.731 320.041 201.774 318.792C199.6 317.398 197.185 316.495 194.782 315.592C190.384 313.931 184.994 313.068 180.964 310.491L178.092 314.635C177.481 317.69 176.49 320.572 175.104 323.215C176.261 324.862 177.342 326.589 178.524 328.289C181.575 332.698 184.981 337.506 189.265 340.694C191.757 342.554 194.782 343.457 197.731 344.32C198.558 344.559 199.714 344.652 200.019 343.815C200.197 343.324 199.956 342.779 199.676 342.341C197.909 339.499 194.871 337.732 193.041 334.943C192.583 334.252 192.24 333.243 192.799 332.645C193.282 332.127 194.032 332.393 194.579 332.566C195.481 332.871 196.447 333.004 197.388 333.216C199.397 333.681 201.392 334.359 203.07 335.62C203.947 336.271 204.71 337.068 205.46 337.865C206.426 338.874 207.405 339.897 208.371 340.907C208.867 341.425 209.375 341.956 209.973 342.341C210.583 342.726 211.295 342.952 211.994 342.806C212.502 342.7 213.024 342.328 213.074 341.783C213.697 341.823 214.346 341.823 214.918 341.571C215.49 341.318 215.973 340.721 215.935 340.07C215.922 339.884 215.871 339.711 215.896 339.525C215.922 339.313 216.062 339.14 216.163 338.967C216.684 338.131 216.634 337.042 216.303 336.112Z" fill="#B27449"/>
<path d="M212.883 341.504C210.595 337.812 207.824 334.465 204.671 331.556" stroke="#333333" stroke-width="0.5" stroke-miterlimit="10" stroke-linecap="round" stroke-linejoin="round"/>
<path d="M215.629 339.14C212.845 335.235 209.591 331.702 205.968 328.634" stroke="#333333" stroke-width="0.5" stroke-miterlimit="10" stroke-linecap="round" stroke-linejoin="round"/>
<path d="M214.243 333.389C211.917 330.507 209.349 327.824 206.59 325.393" stroke="#333333" stroke-width="0.5" stroke-miterlimit="10" stroke-linecap="round" stroke-linejoin="round"/>
<path d="M175.13 246.075C179.019 246.075 182.172 242.781 182.172 238.717C182.172 234.653 179.019 231.359 175.13 231.359C171.24 231.359 168.087 234.653 168.087 238.717C168.087 242.781 171.24 246.075 175.13 246.075Z" stroke="#333333" stroke-width="0.5" stroke-miterlimit="10" stroke-linecap="round" stroke-linejoin="round"/>
<path d="M49.9188 184.328C53.8082 184.328 56.9611 181.034 56.9611 176.97C56.9611 172.906 53.8082 169.612 49.9188 169.612C46.0294 169.612 42.8765 172.906 42.8765 176.97C42.8765 181.034 46.0294 184.328 49.9188 184.328Z" stroke="#333333" stroke-width="0.5" stroke-miterlimit="10" stroke-linecap="round" stroke-linejoin="round"/>
<path d="M203.845 205.459C203.845 206.774 202.828 207.837 201.57 207.837C200.311 207.837 199.294 206.774 199.294 205.459C199.294 204.144 200.311 203.082 201.57 203.082C202.828 203.082 203.845 204.144 203.845 205.459Z" fill="#333333"/>
<path d="M49.9188 219.339C49.9188 220.654 48.9018 221.716 47.6433 221.716C46.3849 221.716 45.368 220.654 45.368 219.339C45.368 218.024 46.3849 216.961 47.6433 216.961C48.9018 216.961 49.9188 218.024 49.9188 219.339Z" fill="#333333"/>
<path d="M411.483 301.399C414.598 309.009 416.479 317.137 419.708 324.695C425.479 338.176 435.381 349.412 440.885 363.013C446.568 377.051 447.19 392.857 445.22 407.971C443.135 423.963 438.102 439.821 428.746 452.651C419.39 465.495 405.381 475.071 390.013 476.731C375.293 478.312 360.662 472.747 345.865 472.906C330.471 473.065 315.802 479.387 300.649 482.163C286.158 484.833 271.12 484.222 256.857 480.41C243.535 476.851 230.722 470.356 220.896 460.315C211.07 450.274 204.421 436.461 204.167 422.103C203.811 402.22 215.163 384.224 218.519 364.646C220.159 355.083 219.866 345.295 220.896 335.639C222.726 318.625 228.815 302.142 238.374 288.236C246.459 276.482 257.544 266.295 270.993 262.842C280.336 260.451 290.111 261.434 299.709 262.045C318.204 263.227 337.742 263.931 356.123 260.982C371.136 258.578 383.492 265.737 394.551 276.442C401.759 283.442 407.619 291.955 411.483 301.399Z" fill="#FFF2F2"/>
<path d="M202.045 387.345C218.074 397.665 233.303 409.326 247.54 422.196C252.676 426.845 257.735 431.679 263.582 435.292C266.328 436.992 280.387 444.602 279.955 437.258C279.663 432.237 267.803 424.733 264.231 421.758C252.396 411.916 239.659 403.163 225.943 396.456C218.252 392.711 210.269 389.603 202.045 387.345Z" fill="#FF9999"/>
<path d="M306.268 443.54C300.904 426.898 293.175 410.853 281.824 397.904C275.353 390.519 267.815 384.263 260.049 378.393C243.638 365.988 224.875 354.871 204.638 355.283C231.612 373.479 254.15 400.414 262.82 432.702C265.413 442.358 266.748 452.346 269.366 461.988C271.985 471.631 276.065 481.18 283.12 487.994L317.874 494.741C314.773 477.501 311.646 460.182 306.268 443.54Z" fill="#FFBFBF"/>
<path d="M205.134 355.216C244.375 370.543 276.04 405.634 288.371 447.458C292.82 462.546 295.057 478.816 303.612 491.832" stroke="black" stroke-width="0.5" stroke-miterlimit="10" stroke-linecap="round" stroke-linejoin="round"/>
<path d="M304.234 273.666C302.988 268.075 302.378 262.244 303.281 256.705C303.751 253.836 304.628 251.087 305.709 248.471C312.56 232.001 328.069 221.655 344.327 220.566C349.107 220.247 354.115 220.752 358.641 222.744C361.653 220.313 365.861 220.459 369.001 222.412C372.369 224.497 375.026 227.871 377.263 231.43C381.509 238.23 384.445 245.947 386.568 253.836C389.479 264.688 390.7 277.08 385.437 286.138C381.077 293.655 373.157 297.294 365.454 299.738C353.429 303.537 340.539 305.317 328.005 302.235C324.891 301.478 321.802 300.402 318.98 298.609C311.073 293.589 306.433 283.561 304.234 273.666Z" fill="#38322E"/>
<path d="M367.615 299.751C368.073 301.266 369.674 302.288 371.162 302.009C371.391 304.48 373.196 306.698 375.484 307.349C377.772 307.999 380.403 307.017 381.789 305.011C384.496 306.074 387.382 306.592 390.267 306.552C391.056 306.538 391.92 306.445 392.479 305.861C393.166 305.131 393.077 303.869 392.53 303.006C391.984 302.142 391.106 301.598 390.267 301.066C391.92 300.548 393.903 299.566 393.865 297.759C393.827 296.072 391.996 295.156 390.458 294.625C391.475 293.27 392.441 291.49 391.793 289.91C391.539 289.299 391.081 288.821 390.585 288.409C387.662 285.952 383.2 285.713 380.047 287.851C378.573 288.847 377.416 290.268 376.056 291.45C374.327 292.951 372.331 294.067 370.374 295.236C368.721 296.232 366.891 297.361 367.615 299.751Z" fill="#FFB2B2"/>
<path d="M216.523 474.194C215.189 476.612 214.121 478.498 213.434 479.6C211.451 482.801 209.354 486.028 206.468 488.379C203.417 490.863 200.138 491.222 196.553 491.593C196.134 491.633 195.701 491.686 195.269 491.726C190.007 492.297 176.519 489.84 173.125 490.916C170.38 491.793 167.939 494.316 169.617 497.265C172.261 501.94 178.172 505.592 182.812 507.678C188.278 510.135 194.112 511.529 199.54 514.079C202.82 515.62 211.451 522.009 214.439 517.294C214.718 516.842 215.799 514.345 217.222 511.118C219.714 505.473 223.235 497.623 225.358 494.768C228.142 491.022 230.722 487.635 233.125 484.501L216.523 474.194Z" fill="#F2B27E"/>
<path d="M215.087 502.87C213.587 504.397 211.426 505.194 209.341 504.955" stroke="black" stroke-width="0.5" stroke-miterlimit="10" stroke-linecap="round" stroke-linejoin="round"/>
<path d="M169.236 495.485C170.087 494.449 171.333 493.785 172.63 493.652" stroke="black" stroke-width="0.5" stroke-miterlimit="10" stroke-linecap="round" stroke-linejoin="round"/>
<path d="M170.151 497.982C171.053 496.999 172.35 496.441 173.646 496.455" stroke="black" stroke-width="0.5" stroke-miterlimit="10" stroke-linecap="round" stroke-linejoin="round"/>
<path d="M171.943 500.067C172.82 499.416 173.863 499.018 174.918 498.898" stroke="black" stroke-width="0.5" stroke-miterlimit="10" stroke-linecap="round" stroke-linejoin="round"/>
<path d="M174.562 502.578C175.49 502.02 176.596 501.781 177.663 501.887" stroke="black" stroke-width="0.5" stroke-miterlimit="10" stroke-linecap="round" stroke-linejoin="round"/>
<path d="M242.964 447.538C242.582 450.3 242.252 452.465 242.01 453.754C241.299 457.499 240.498 461.311 238.642 464.605C236.684 468.085 233.76 469.692 230.557 471.418C230.176 471.618 229.794 471.83 229.413 472.043C224.722 474.606 211.324 477.528 208.553 479.839C206.303 481.712 204.943 484.992 207.536 487.091C211.655 490.425 218.43 491.527 223.477 491.673C229.426 491.846 235.337 490.903 241.286 491.168C244.883 491.341 255.154 493.944 256.26 488.406C256.362 487.875 256.489 485.139 256.667 481.592C256.985 475.39 257.493 466.73 258.459 463.263C259.731 458.708 260.925 454.564 262.057 450.725L242.964 447.538Z" fill="#F2B27E"/>
<path d="M251.748 474.739C250.896 476.744 249.167 478.312 247.146 478.896" stroke="black" stroke-width="0.5" stroke-miterlimit="10" stroke-linecap="round" stroke-linejoin="round"/>
<path d="M206.532 485.564C206.951 484.275 207.879 483.173 209.036 482.549" stroke="black" stroke-width="0.5" stroke-miterlimit="10" stroke-linecap="round" stroke-linejoin="round"/>
<path d="M208.261 487.529C208.756 486.281 209.761 485.245 210.968 484.767" stroke="black" stroke-width="0.5" stroke-miterlimit="10" stroke-linecap="round" stroke-linejoin="round"/>
<path d="M210.663 488.778C211.248 487.835 212.074 487.064 213.015 486.546" stroke="black" stroke-width="0.5" stroke-miterlimit="10" stroke-linecap="round" stroke-linejoin="round"/>
<path d="M213.981 490.106C214.655 489.229 215.583 488.579 216.612 488.26" stroke="black" stroke-width="0.5" stroke-miterlimit="10" stroke-linecap="round" stroke-linejoin="round"/>
<path d="M381.191 423.113C381.191 423.113 374.785 444.961 343.196 443.487C311.62 442.013 285.065 415.529 285.065 415.529L259.54 471.99C259.54 471.99 255.612 474.487 247.705 472.733C239.811 470.98 237.358 466.318 237.358 466.318C237.358 466.318 244.858 376.56 263.887 371.42C282.917 366.28 330.154 396.35 330.154 396.35L381.522 400.52L381.191 423.113Z" fill="#8EBABC"/>
<path d="M399.039 433.858C399.039 433.858 388.17 454.152 358.704 457.034C329.238 459.916 285.078 435.956 285.078 435.956C285.078 435.956 276.523 452.651 262.832 466.929C249.141 481.207 225.32 499.948 225.32 499.948C225.32 499.948 221.15 501.953 214.248 496.959C207.358 491.965 207.358 486.214 207.358 486.214C207.358 486.214 252.612 413.948 263.963 406.112C275.315 398.276 348.001 407.108 348.001 407.108L399.369 411.279L399.039 433.858Z" fill="#8EBABC"/>
<path d="M387.712 433.738C387.712 433.738 375.954 451.004 354.103 451.602C332.238 452.2 283.756 431.374 283.756 431.374C283.756 431.374 256.12 477.794 219.282 499.669" stroke="black" stroke-width="0.5" stroke-miterlimit="10" stroke-linecap="round" stroke-linejoin="round"/>
<path d="M284.824 434.03C283.565 431.161 282.294 428.306 281.035 425.437" stroke="black" stroke-width="0.5" stroke-miterlimit="10" stroke-linecap="round" stroke-linejoin="round"/>
<path d="M372.522 446.555C369.891 439.967 369.497 432.436 371.429 425.596" stroke="black" stroke-width="0.5" stroke-miterlimit="10" stroke-linecap="round" stroke-linejoin="round"/>
<path d="M241.07 434.894C250.693 421.041 259.705 409.047 263.964 406.099C271.692 400.759 307.87 403.15 330.166 405.222L326.302 400.706" stroke="black" stroke-width="0.5" stroke-miterlimit="10" stroke-linecap="round" stroke-linejoin="round"/>
<path d="M329.861 404.89C329.861 404.89 332.239 404.16 342.866 404.04" stroke="black" stroke-width="0.5" stroke-miterlimit="10" stroke-linecap="round" stroke-linejoin="round"/>
<path d="M327.611 402.313C327.611 402.313 329.989 401.583 340.616 401.463" stroke="black" stroke-width="0.5" stroke-miterlimit="10" stroke-linecap="round" stroke-linejoin="round"/>
<path d="M255.878 326.86C255.649 325.996 255.7 325 256.247 324.31C255.815 323.42 255.395 322.53 255.243 321.547C255.09 320.564 255.268 319.488 255.916 318.771C256.056 318.625 256.221 318.479 256.285 318.28C256.348 318.107 256.336 317.921 256.361 317.748C256.45 317.098 257.022 316.633 257.632 316.5C258.243 316.367 258.878 316.513 259.476 316.673C260.022 314.813 263.06 316.58 263.759 317.376C264.637 318.359 265.183 319.608 265.895 320.737C268.259 324.509 272.251 326.753 276.064 328.839C276.395 329.025 276.738 329.197 277.107 329.237C278.213 329.343 278.047 328.334 277.742 327.59C276.484 324.469 273.853 322.118 272.67 318.957C272.492 318.466 272.353 317.881 272.62 317.443C273.077 316.686 274.196 317.018 274.958 317.43C277.679 318.891 280.45 320.405 282.535 322.756C286.107 326.78 288.522 332.186 290.658 337.14C291.98 340.221 294.916 346.224 294.916 346.224L283.768 354.008C283.768 354.008 281.658 350.687 279.649 349.664C277.628 348.642 275.683 347.473 273.636 346.517C270.929 345.255 268.272 343.661 266.098 341.536C264.433 339.916 262.92 338.282 261.637 336.29C260.124 333.926 258.598 331.575 257.086 329.211C256.603 328.48 256.12 327.723 255.878 326.86Z" fill="#F2B27E"/>
<path d="M280.806 342.798C277.844 339.73 274.03 337.578 269.963 336.648" stroke="#333333" stroke-width="0.5" stroke-miterlimit="10" stroke-linecap="round" stroke-linejoin="round"/>
<path d="M256.412 324.283C257.734 324.615 258.573 325.917 259.323 327.099C260.912 329.636 262.603 332.132 264.675 334.244" stroke="#333333" stroke-width="0.5" stroke-miterlimit="10" stroke-linecap="round" stroke-linejoin="round"/>
<path d="M256.666 318.187C258.611 319.09 259.78 321.135 260.912 323.021C262.653 325.89 264.586 328.639 266.683 331.243" stroke="#333333" stroke-width="0.5" stroke-miterlimit="10" stroke-linecap="round" stroke-linejoin="round"/>
<path d="M259.895 316.925C261.23 317.894 262.056 319.435 262.933 320.883C264.547 323.566 266.454 326.05 268.628 328.268" stroke="#333333" stroke-width="0.5" stroke-miterlimit="10" stroke-linecap="round" stroke-linejoin="round"/>
<path d="M341.238 318.997C335.874 320.484 330.891 323.38 328.514 328.692C326.149 334.005 323.416 352.48 323.416 352.48L295.31 343.223C295.31 343.223 291.904 342.877 287.035 346.822C282.167 350.753 280.578 353.636 280.578 353.636C280.578 353.636 312.052 382.484 330.014 383.799C347.988 385.1 351.255 340.394 351.255 340.394C351.255 340.394 346.602 317.509 341.238 318.997Z" fill="#CF6969"/>
<path d="M355.59 328.307C355.59 328.307 349.081 323.579 348.191 315.876C348.967 315.358 349.501 314.773 349.679 314.056C350.518 310.483 346.679 299.725 346.679 299.725L363.865 291.743C363.865 291.743 363.878 304.228 368.187 308.292C368.848 308.916 369.84 309.381 371.073 309.766C370.03 312.622 365.848 322.663 355.59 328.307Z" fill="#F2B27E"/>
<path opacity="0.7" d="M346.666 299.725L363.852 291.743C363.852 291.743 363.852 295.873 364.678 300.163C361.844 306.459 356.301 316.115 349.551 314.375C349.589 314.269 349.64 314.176 349.666 314.069C350.505 310.483 346.666 299.725 346.666 299.725Z" fill="#F2B27E"/>
<path d="M330.408 396.111C333.128 393.455 335.861 390.785 338.581 388.129C340.399 386.349 342.23 384.569 344.047 382.789C344.823 382.032 345.573 381.262 346.361 380.531C347.213 379.748 348.713 379.389 347.569 378.008C347.34 377.742 347.098 377.477 346.971 377.144C346.78 376.653 347.2 376.241 347.111 375.869C347.047 375.591 346.819 375.484 346.679 375.245C346.412 374.794 345.967 374.382 345.649 373.957C344.848 372.908 344.111 371.805 343.437 370.676C341.569 367.582 340.094 364.221 338.975 360.755C335.098 348.708 333.675 328.307 336.166 323.154C338.162 319.037 345.09 317.961 348.191 315.876C349.081 323.579 355.59 328.307 355.59 328.307C365.848 322.649 370.03 312.622 371.047 309.753C377.886 311.891 392.085 311.347 397.17 318.891C403.182 327.789 409.233 379.482 407.822 401.357C406.411 423.232 399.038 433.858 399.038 433.858C399.038 433.858 383.81 438.852 363.903 428.279C343.997 417.707 330.154 396.35 330.154 396.35C330.242 396.27 330.319 396.191 330.408 396.111Z" fill="#CF6969"/>
<path d="M346.361 380.531C347.213 379.748 348.713 379.389 347.569 378.008C347.34 377.742 347.098 377.476 346.971 377.144C346.781 376.653 347.2 376.241 347.111 375.869C347.047 375.59 346.819 375.484 346.679 375.245C346.412 374.794 345.967 374.382 345.649 373.957C344.848 372.908 344.111 371.805 343.437 370.676C341.569 367.582 340.094 364.221 338.976 360.755C336.611 353.397 335.149 342.917 334.946 334.696" stroke="black" stroke-width="0.5" stroke-miterlimit="10" stroke-linecap="round" stroke-linejoin="round"/>
<path d="M359.785 371.168C366.751 376.281 375.712 378.3 384.064 376.626" stroke="black" stroke-width="0.5" stroke-miterlimit="10" stroke-linecap="round" stroke-linejoin="round"/>
<path d="M349.755 379.19C359.187 383.188 369.153 385.804 379.259 386.92" stroke="black" stroke-width="0.5" stroke-miterlimit="10" stroke-linecap="round" stroke-linejoin="round"/>
<path d="M308.951 265.817C308.124 288.343 322.501 311.28 335.175 311.785C352.933 312.489 372.827 292.925 373.653 270.399C374.48 247.873 362.149 227.021 344.391 226.304C326.62 225.613 309.777 243.291 308.951 265.817Z" fill="#F2B27E"/>
<path d="M363.84 287.718C363.624 293.536 358.946 298.065 353.379 297.839C347.811 297.613 343.476 292.726 343.692 286.908C343.908 281.091 348.586 276.562 354.154 276.788C359.709 277.013 364.044 281.914 363.84 287.718Z" fill="url(#paint6_radial_1_497)"/>
<path d="M335.156 290.939C334.94 296.757 330.262 301.286 324.694 301.06C319.126 300.834 314.792 295.946 315.008 290.129C315.224 284.312 319.902 279.782 325.47 280.008C331.025 280.234 335.372 285.122 335.156 290.939Z" fill="url(#paint7_radial_1_497)"/>
<path d="M345.026 290.229C345.026 290.229 344.81 298.065 338.937 300.562C333.077 303.046 327.726 298.556 327.726 298.556C327.726 298.556 333.764 294.625 345.026 290.229Z" fill="black"/>
<path d="M333.56 304.666C335.315 307.189 341.2 305.848 346.704 301.664C352.209 297.48 355.247 292.048 353.492 289.525C351.738 287.001 345.853 288.343 340.349 292.526C334.844 296.71 331.806 302.142 333.56 304.666Z" fill="#D8714C"/>
<path d="M346.209 291.079C346.209 291.079 335.988 296.684 332.416 297.945C328.844 299.207 325.311 295.555 325.311 295.555L343.374 286.55L346.209 291.079Z" fill="white"/>
<path d="M334.743 276.389C334.667 278.461 336.205 280.201 338.188 280.267C340.171 280.347 341.836 278.74 341.9 276.668C341.976 274.596 340.438 272.856 338.455 272.79C336.484 272.723 334.819 274.33 334.743 276.389Z" fill="black"/>
<path d="M315.332 280.918C315.256 282.99 316.794 284.73 318.777 284.796C320.76 284.876 322.425 283.269 322.489 281.197C322.565 279.125 321.027 277.385 319.044 277.319C317.074 277.239 315.408 278.846 315.332 280.918Z" fill="black"/>
<path d="M330.992 269.403C331.895 267.902 332.937 266.56 334.132 265.471C335.34 264.409 336.713 263.599 338.213 263.28C339.7 262.921 341.289 263.001 342.865 263.333C344.442 263.652 346.005 264.236 347.619 264.834C346.336 263.665 344.848 262.709 343.183 262.124C342.357 261.792 341.48 261.646 340.59 261.527C339.687 261.46 338.785 261.527 337.882 261.713C336.09 262.124 334.463 263.187 333.293 264.581C332.124 265.976 331.298 267.636 330.992 269.403Z" fill="#38322E"/>
<path d="M320.823 270.811C320.048 269.748 319.018 268.898 317.887 268.247C316.743 267.61 315.433 267.172 314.061 267.158C313.387 267.132 312.65 267.225 311.976 267.517C311.302 267.809 310.679 268.261 310.234 268.845C309.332 270.001 309.001 271.448 309.154 272.776C309.662 271.555 310.298 270.479 311.124 269.748C311.95 269.018 312.929 268.739 314.048 268.765C315.166 268.765 316.298 269.018 317.429 269.376C318.561 269.748 319.679 270.24 320.823 270.811Z" fill="#38322E"/>
<path d="M342.179 272.604C342.179 272.604 337.45 270.651 334.488 275.566" stroke="black" stroke-width="0.5" stroke-miterlimit="10" stroke-linecap="round" stroke-linejoin="round"/>
<path d="M322.196 277.372C322.196 277.372 318.04 275.127 315.319 279.696" stroke="black" stroke-width="0.5" stroke-miterlimit="10" stroke-linecap="round" stroke-linejoin="round"/>
<path d="M325.26 278.713C326.391 280.599 326.404 283.149 325.298 285.049C324.65 286.151 323.645 287.081 323.353 288.343C323.086 289.485 323.506 290.733 324.256 291.61C325.006 292.5 326.048 293.058 327.116 293.416C327.116 293.416 330.205 293.257 331.438 289.658C332.684 286.058 330.828 281.356 328.959 278.567C327.09 275.778 325.26 278.713 325.26 278.713Z" fill="url(#paint8_linear_1_497)"/>
<path d="M325.26 278.713C326.391 280.599 326.404 283.149 325.298 285.049C324.65 286.151 323.645 287.081 323.353 288.343C323.086 289.485 323.506 290.733 324.256 291.61C325.006 292.5 326.048 293.058 327.116 293.416" stroke="black" stroke-width="0.5" stroke-miterlimit="10" stroke-linecap="round" stroke-linejoin="round"/>
<path d="M343.743 290.003C345.014 289.79 346.349 290.096 347.429 290.84" stroke="black" stroke-width="0.5" stroke-miterlimit="10" stroke-linecap="round" stroke-linejoin="round"/>
<path d="M315.001 260.066C323.48 265.06 333.408 267.331 343.107 266.507C336.84 265.684 332.162 260.212 328.488 254.846C335.404 259.123 343.666 260.119 351.624 261.327C359.581 262.549 367.869 264.263 374.073 269.615C375.598 268.513 377.123 267.41 378.636 266.308C379.068 265.989 379.526 265.657 379.78 265.166C380.073 264.621 380.073 263.957 380.047 263.333C379.602 250.397 372.649 238.284 363.064 230.075C360.891 228.216 358.564 226.516 355.997 225.334C347.861 221.588 338.327 223.461 330.128 227.034C324.802 229.358 319.679 232.426 315.599 236.703C312.141 240.316 309.522 244.778 308.327 249.759C307.844 251.765 307.59 253.239 308.836 254.965C310.4 257.157 312.751 258.751 315.001 260.066Z" fill="#38322E"/>
<path d="M367.932 269.429C365.771 276.03 366.216 281.927 370.691 283.535C375.165 285.142 381.979 281.834 384.153 275.233C386.314 268.632 384.445 261.992 379.958 260.384C375.471 258.791 370.093 262.828 367.932 269.429Z" fill="#F2B27E"/>
<path d="M383.225 263.041C383.225 263.041 375.445 264.488 370.183 278.886" stroke="black" stroke-width="0.5" stroke-miterlimit="10" stroke-linecap="round" stroke-linejoin="round"/>
<path d="M368.53 248.298C358.882 247.342 349.602 241.87 339.954 241.63C333.115 241.458 326.569 243.968 320.531 247.249C314.187 250.702 308.264 255.072 302.912 260.198C302.976 259.03 303.09 257.861 303.268 256.705C303.738 253.836 304.616 251.087 305.696 248.471C307.755 243.516 310.615 239.12 314.035 235.361C319.87 233.954 326.022 233.887 332.009 235.388C334.653 236.052 337.247 236.982 339.878 237.633C352.348 240.727 365.581 237.062 375.013 228.176C375.801 229.225 376.551 230.314 377.25 231.43C380.022 235.866 382.234 240.687 384.026 245.695C383.339 246.027 382.64 246.332 381.928 246.598C377.683 248.165 373.094 248.749 368.53 248.298Z" fill="#38322E"/>
<path d="M260.15 293.761C260.061 293.881 259.959 294.001 259.87 294.12C255.23 300.482 253.451 308.783 253.883 316.672C254.341 324.774 256.997 332.611 260.544 339.836C266.29 351.55 274.489 362.03 284.747 369.667C295.006 377.304 307.349 382.019 319.933 382.417C328.501 382.683 337.819 380.531 343.297 373.638C349.234 366.16 349.005 354.977 345.408 346.012C344.454 343.648 343.285 341.35 341.709 339.398C339.954 337.219 337.73 335.506 335.442 333.965C327.484 328.653 318.357 325.279 310.972 319.143C306.98 315.836 303.586 311.758 300.98 307.189C298.272 302.448 296.175 296.763 292.883 292.46C289.756 288.369 283.362 286.31 278.569 286.098C272.417 285.806 264.167 288.635 260.15 293.761Z" fill="#FFCCCC"/>
<path d="M297.662 295.236C306.102 305.635 309.624 319.369 300.954 326.169C292.285 332.969 280.603 327.258 275.632 321.348C270.649 315.451 268.526 300.681 273.522 294.957C278.505 289.246 289.221 284.836 297.662 295.236Z" fill="#F2B27E"/>
<path d="M281.443 324.486C283.617 327.169 287.468 327.501 290.036 325.23C292.604 322.959 292.922 318.934 290.748 316.252C288.574 313.569 284.722 313.237 282.155 315.508C279.587 317.792 279.269 321.803 281.443 324.486Z" fill="url(#paint9_radial_1_497)"/>
<path d="M294.443 317.486C296.617 320.169 300.468 320.501 303.036 318.23C305.604 315.959 305.922 311.934 303.748 309.252C301.574 306.569 297.722 306.237 295.155 308.508C292.587 310.779 292.269 314.803 294.443 317.486Z" fill="url(#paint10_radial_1_497)"/>
<path d="M292.285 320.79C292.285 320.79 294.535 322.37 296.823 321.281C299.111 320.192 299.315 317.868 299.315 317.868" stroke="black" stroke-width="0.5" stroke-miterlimit="10" stroke-linecap="round" stroke-linejoin="round"/>
<path d="M289.361 306.233C288.395 305.874 287.416 305.635 286.463 305.582C285.51 305.542 284.569 305.689 283.743 306.127C282.904 306.539 282.179 307.189 281.543 307.96C280.908 308.73 280.374 309.607 279.815 310.523C280.005 309.461 280.374 308.438 280.959 307.508C281.238 307.03 281.594 306.618 281.976 306.22C282.382 305.835 282.84 305.516 283.336 305.25C284.34 304.746 285.484 304.626 286.539 304.825C287.594 305.038 288.586 305.516 289.361 306.233Z" fill="#5E4028"/>
<path d="M294.014 303.935C294.001 303.125 294.191 302.328 294.497 301.571C294.814 300.814 295.285 300.097 295.92 299.566C296.225 299.3 296.619 299.048 297.039 298.915C297.458 298.795 297.916 298.769 298.335 298.875C299.174 299.074 299.848 299.632 300.255 300.323C299.581 299.937 298.895 299.672 298.234 299.645C297.585 299.619 297.013 299.871 296.492 300.323C295.958 300.748 295.513 301.319 295.107 301.93C294.713 302.541 294.357 303.218 294.014 303.935Z" fill="#5E4028"/>
<path d="M285.331 314.428C285.331 314.428 286.831 310.882 290.772 311.865" stroke="black" stroke-width="0.5" stroke-miterlimit="10" stroke-linecap="round" stroke-linejoin="round"/>
<path d="M295.984 308.677C295.984 308.677 296.721 305.596 300.471 306.539" stroke="black" stroke-width="0.5" stroke-miterlimit="10" stroke-linecap="round" stroke-linejoin="round"/>
<path d="M294.497 307.734C294.624 309.075 295.539 310.297 296.747 310.762C297.446 311.041 298.26 311.081 298.844 311.572C299.378 312.011 299.62 312.768 299.582 313.485C299.544 314.202 299.251 314.866 298.87 315.464C298.87 315.464 297.344 316.593 295.463 315.358C293.582 314.136 292.794 311.174 292.679 309.115C292.578 307.057 294.497 307.734 294.497 307.734Z" fill="url(#paint11_linear_1_497)"/>
<path d="M294.497 307.734C294.624 309.075 295.539 310.297 296.747 310.762C297.446 311.041 298.26 311.081 298.844 311.572C299.378 312.011 299.62 312.768 299.582 313.485C299.544 314.202 299.251 314.866 298.87 315.464" stroke="black" stroke-width="0.5" stroke-miterlimit="10" stroke-linecap="round" stroke-linejoin="round"/>
<path d="M253.769 318.213C254.748 320.777 256.909 322.623 259.019 324.283C261.701 326.395 264.459 328.414 267.421 330.06C278.417 336.183 291.396 336.821 303.853 336.608C316.311 336.396 329.01 335.479 341.035 338.919" stroke="black" stroke-width="0.5" stroke-miterlimit="10" stroke-linecap="round" stroke-linejoin="round"/>
<path d="M310.603 319.023C311.696 324.788 311.378 330.844 309.65 336.436" stroke="black" stroke-width="0.5" stroke-miterlimit="10" stroke-linecap="round" stroke-linejoin="round"/>
<path d="M274.604 361.127C272.392 359.493 270.18 357.859 267.969 356.212C267.269 355.694 266.57 355.176 266.062 354.459C265.553 353.742 265.274 352.799 265.541 351.949C264.842 351.285 264.142 350.607 263.672 349.744C263.202 348.894 262.998 347.818 263.354 346.915C263.431 346.716 263.532 346.53 263.532 346.317C263.532 346.145 263.456 345.972 263.418 345.799C263.278 345.162 263.659 344.511 264.18 344.166C264.702 343.82 265.337 343.714 265.96 343.648C265.922 343.103 266.38 342.652 266.863 342.466C267.524 342.213 268.261 342.32 268.922 342.585C269.57 342.864 270.142 343.302 270.714 343.728C271.82 344.564 272.926 345.401 274.032 346.238C274.896 346.889 275.774 347.539 276.727 348.044C278.57 349 280.629 349.346 282.676 349.465C283.629 349.532 284.596 349.505 285.523 349.651C286.083 349.731 286.858 349.877 287.265 349.279C287.723 348.602 287.227 347.672 286.68 347.061C284.456 344.617 281.202 343.395 279.041 340.898C278.71 340.513 278.38 340.022 278.481 339.504C278.659 338.627 279.803 338.521 280.655 338.627C283.68 338.986 286.782 339.371 289.515 340.792C294.206 343.223 298.286 347.367 301.947 351.205C303.968 353.317 305.786 355.495 307.884 357.394L301.477 369.308C297.142 367.449 292.477 367.25 287.901 366.346C285.409 365.855 282.892 365.364 280.553 364.354C278.443 363.478 276.473 362.508 274.604 361.127Z" fill="#F2B27E"/>
<path d="M266.201 343.9C269.011 347.141 272.24 349.983 275.773 352.308" stroke="#333333" stroke-width="0.5" stroke-miterlimit="10" stroke-linecap="round" stroke-linejoin="round"/>
<path d="M263.863 346.676C267.193 350.05 270.918 352.985 274.935 355.402" stroke="#333333" stroke-width="0.5" stroke-miterlimit="10" stroke-linecap="round" stroke-linejoin="round"/>
<path d="M266.1 352.095C268.82 354.539 271.744 356.744 274.82 358.683" stroke="#333333" stroke-width="0.5" stroke-miterlimit="10" stroke-linecap="round" stroke-linejoin="round"/>
<path d="M392.251 314.654C402.153 318.625 405.891 331.11 399.509 344.684C393.128 358.258 372.84 387.053 359.226 388.965C345.612 390.891 301.654 370.636 301.654 370.636C301.654 370.636 300.523 365.483 302.76 361.1C304.998 356.717 308.074 357.341 308.074 357.341C308.633 357.381 309.192 357.408 309.752 357.448C313.489 357.687 317.226 357.926 320.963 358.165C326.074 358.483 331.171 358.816 336.281 359.134C337.095 359.187 348.599 360.024 348.611 359.878C348.65 359.519 348.713 359.161 348.815 358.802C348.828 358.749 348.84 358.696 348.878 358.669C348.917 358.63 348.967 358.616 349.018 358.616C349.578 358.497 350.556 358.497 350.9 358.045C351.014 357.899 351.052 357.567 351.116 357.381C351.294 356.85 351.472 356.319 351.65 355.774C352.107 354.419 356.811 353.662 357.561 352.467C360.217 348.283 362.874 344.113 365.531 339.929C368.06 335.944 370.59 331.96 373.12 327.975C374.251 326.196 375.37 324.429 376.501 322.649C376.501 322.663 382.348 310.669 392.251 314.654Z" fill="#CF6969"/>
<path d="M350.365 360.396C352.018 362.136 353.327 364.208 354.204 366.479" stroke="black" stroke-width="0.5" stroke-miterlimit="10" stroke-linecap="round" stroke-linejoin="round"/>
<path d="M397.018 349.492C388.869 364.088 371.391 387.238 359.225 388.965C355.45 389.496 348.154 387.637 340.882 385.884" stroke="black" stroke-width="0.5" stroke-miterlimit="10" stroke-linecap="round" stroke-linejoin="round"/>
<path d="M308.061 357.341C308.62 357.381 309.18 357.408 309.739 357.447C310.311 357.487 310.883 357.514 311.455 357.554" stroke="black" stroke-width="0.5" stroke-miterlimit="10" stroke-linecap="round" stroke-linejoin="round"/>
<path d="M319.705 358.085C320.125 358.112 320.531 358.138 320.951 358.165C325.26 358.444 329.582 358.709 333.891 358.988L334.654 359.041C335.188 359.081 335.722 359.108 336.269 359.148C337.082 359.201 348.586 360.037 348.599 359.891C348.637 359.533 348.701 359.174 348.802 358.816C348.815 358.762 348.828 358.709 348.866 358.683C348.904 358.643 348.955 358.63 349.006 358.63C349.565 358.51 350.544 358.51 350.887 358.058C351.001 357.912 351.04 357.58 351.103 357.394C351.281 356.863 351.459 356.332 351.637 355.787C352.095 354.433 356.798 353.675 357.548 352.48C360.205 348.296 362.862 344.126 365.518 339.942C368.048 335.958 370.578 331.973 373.107 327.989" stroke="black" stroke-width="0.5" stroke-miterlimit="10" stroke-linecap="round" stroke-linejoin="round"/>
<path d="M390.471 307.535C389.734 304.081 387.713 300.88 384.916 298.862C381.764 296.59 378.459 297.015 375.357 299.326C373.933 300.389 372.726 301.744 371.683 303.191C370.641 304.639 369.459 305.715 368.111 306.884C365.264 309.368 362.2 311.586 359.34 314.056C355.539 317.337 351.98 321.202 350.226 326.023C349.45 328.161 349.044 330.419 348.853 332.69C348.7 334.43 348.675 336.21 349.018 337.923C349.285 339.265 349.781 340.54 350.378 341.748C352.641 346.371 356.48 350.169 361.094 352.122C365.709 354.074 371.06 354.127 375.637 352.095C372.7 351.338 370.501 348.496 369.84 345.401C369.179 342.306 369.878 339.039 371.175 336.183C372.484 333.328 374.378 330.818 376.247 328.321C374.645 330.671 373.285 333.315 373.069 336.183C372.853 339.052 373.984 342.187 376.399 343.595C376.323 339.676 378.09 335.958 380.264 332.757C382.437 329.569 385.069 326.713 387.103 323.42C390.014 318.744 391.628 312.98 390.471 307.535Z" fill="#38322E"/>
<path d="M442.577 336.622C432.458 353.211 423.623 370.65 416.187 388.713C413.505 395.234 410.975 401.888 407.213 407.812C405.446 410.588 395.975 423.843 393.293 417.043C391.463 412.394 399.001 400.241 400.971 395.938C407.505 381.687 415.323 368.007 424.869 355.721C430.234 348.828 436.132 342.399 442.577 336.622Z" fill="#FF9999"/>
<path d="M410.187 402.446C389.162 414.453 366.509 423.179 345.637 435.491C324.764 447.79 305.15 464.472 295.209 487.264L329.111 490.292C331.539 486.228 334.908 482.881 338.467 479.866C365.442 456.981 403.628 451.921 429.356 427.509C435.445 421.731 440.657 414.997 445.081 407.759C455.225 391.13 461.11 371.712 462 352.029C451.182 374.369 431.212 390.426 410.187 402.446Z" fill="#FFCCCC"/>
<path d="M462 352.958C460.309 366.878 451.894 378.831 443.085 389.43C438.826 394.557 434.377 399.551 429.356 403.854C421.119 410.92 411.496 415.967 401.886 420.762C384.827 429.275 367.399 437.191 351.446 447.777C335.48 458.362 320.849 471.91 311.734 489.216" stroke="black" stroke-width="0.5" stroke-miterlimit="10" stroke-linecap="round" stroke-linejoin="round"/>
<path d="M436.462 315.716C436.462 319.78 433.31 323.074 429.42 323.074C425.53 323.074 422.378 319.78 422.378 315.716C422.378 311.652 425.53 308.358 429.42 308.358C433.31 308.358 436.462 311.652 436.462 315.716Z" stroke="#333333" stroke-width="0.5" stroke-miterlimit="10" stroke-linecap="round" stroke-linejoin="round"/>
<path d="M293.226 259.03C293.226 263.094 290.073 266.388 286.184 266.388C282.294 266.388 279.141 263.094 279.141 259.03C279.141 254.965 282.294 251.672 286.184 251.672C290.073 251.672 293.226 254.965 293.226 259.03Z" stroke="#333333" stroke-width="0.5" stroke-miterlimit="10" stroke-linecap="round" stroke-linejoin="round"/>
<path d="M247.591 344.856C247.591 346.171 246.574 347.234 245.315 347.234C244.057 347.234 243.04 346.171 243.04 344.856C243.04 343.542 244.057 342.479 245.315 342.479C246.574 342.479 247.591 343.542 247.591 344.856Z" fill="#333333"/>
<path d="M416.835 284.77C416.835 286.085 415.818 287.147 414.56 287.147C413.301 287.147 412.285 286.085 412.285 284.77C412.285 283.455 413.301 282.392 414.56 282.392C415.818 282.392 416.835 283.455 416.835 284.77Z" fill="#333333"/>
<defs>
<radialGradient id="paint0_radial_1_497" cx="0" cy="0" r="1" gradientUnits="userSpaceOnUse" gradientTransform="translate(299.25 69.7634) rotate(-164.059) scale(9.76728 10.1406)">
<stop stop-color="#E89575"/>
<stop offset="1" stop-color="#F2B27E"/>
</radialGradient>
<radialGradient id="paint1_radial_1_497" cx="0" cy="0" r="1" gradientUnits="userSpaceOnUse" gradientTransform="translate(269 66.5) rotate(-3.17983) scale(9.01388 9.3584)">
<stop stop-color="#E89575"/>
<stop offset="1" stop-color="#F2B27E"/>
</radialGradient>
<linearGradient id="paint2_linear_1_497" x1="272.001" y1="68.3097" x2="276.813" y2="60.2819" gradientUnits="userSpaceOnUse">
<stop stop-color="#DB8965"/>
<stop offset="0.9996" stop-color="#F2B27E"/>
</linearGradient>
<radialGradient id="paint3_radial_1_497" cx="0" cy="0" r="1" gradientUnits="userSpaceOnUse" gradientTransform="translate(113.294 187.073) rotate(-15.7811) scale(9.64112 10.0109)">
<stop stop-color="#A55D47"/>
<stop offset="1" stop-color="#B27449"/>
</radialGradient>
<radialGradient id="paint4_radial_1_497" cx="0" cy="0" r="1" gradientUnits="userSpaceOnUse" gradientTransform="translate(152.108 187.056) rotate(-15.7811) scale(9.64099 10.0107)">
<stop stop-color="#A55D47"/>
<stop offset="1" stop-color="#B27449"/>
</radialGradient>
<linearGradient id="paint5_linear_1_497" x1="140.196" y1="185.713" x2="135.467" y2="177.775" gradientUnits="userSpaceOnUse">
<stop stop-color="#9A5331"/>
<stop offset="1" stop-color="#B27449"/>
</linearGradient>
<radialGradient id="paint6_radial_1_497" cx="0" cy="0" r="1" gradientUnits="userSpaceOnUse" gradientTransform="translate(353.763 287.32) rotate(-177.713) scale(10.0826 10.5333)">
<stop stop-color="#E89575"/>
<stop offset="1" stop-color="#F2B27E"/>
</radialGradient>
<radialGradient id="paint7_radial_1_497" cx="0" cy="0" r="1" gradientUnits="userSpaceOnUse" gradientTransform="translate(320.5 293.5) rotate(-148.479) scale(6.44581 6.73396)">
<stop stop-color="#E89575"/>
<stop offset="1" stop-color="#F2B27E"/>
</radialGradient>
<linearGradient id="paint8_linear_1_497" x1="325.954" y1="292.537" x2="328.882" y2="283.222" gradientUnits="userSpaceOnUse">
<stop stop-color="#DB8965"/>
<stop offset="0.9996" stop-color="#F2B27E"/>
</linearGradient>
<radialGradient id="paint9_radial_1_497" cx="0" cy="0" r="1" gradientUnits="userSpaceOnUse" gradientTransform="translate(286.099 320.371) rotate(-41.5387) scale(6.21267 6.2515)">
<stop stop-color="#E89575"/>
<stop offset="1" stop-color="#F2B27E"/>
</radialGradient>
<radialGradient id="paint10_radial_1_497" cx="0" cy="0" r="1" gradientUnits="userSpaceOnUse" gradientTransform="translate(303.5 313) rotate(-86.2135) scale(3.75901 3.78251)">
<stop stop-color="#E89575"/>
<stop offset="1" stop-color="#F2B27E"/>
</radialGradient>
<linearGradient id="paint11_linear_1_497" x1="299.11" y1="314.583" x2="294.339" y2="311.368" gradientUnits="userSpaceOnUse">
<stop stop-color="#DB8965"/>
<stop offset="0.9996" stop-color="#F2B27E"/>
</linearGradient>
</defs>
</svg>
