<svg width="60" height="60" viewBox="0 0 60 60" fill="none" xmlns="http://www.w3.org/2000/svg">
<path fill-rule="evenodd" clip-rule="evenodd" d="M23.409 20.6818C23.409 23.0928 24.3668 25.4052 26.0717 27.11C27.7765 28.8149 30.0889 29.7727 32.4999 29.7727C34.911 29.7727 37.2233 28.8149 38.9282 27.11C40.633 25.4052 41.5908 23.0928 41.5908 20.6818C41.5908 18.2707 40.633 15.9584 38.9282 14.2535C37.2233 12.5487 34.911 11.5909 32.4999 11.5909C30.0889 11.5909 27.7765 12.5487 26.0717 14.2535C24.3668 15.9584 23.409 18.2707 23.409 20.6818ZM27.9545 20.6818C27.9545 21.8873 28.4334 23.0435 29.2858 23.8959C30.1382 24.7483 31.2944 25.2272 32.4999 25.2272C33.7054 25.2272 34.8616 24.7483 35.714 23.8959C36.5665 23.0435 37.0454 21.8873 37.0454 20.6818C37.0454 19.4763 36.5665 18.3201 35.714 17.4677C34.8616 16.6152 33.7054 16.1363 32.4999 16.1363C31.2944 16.1363 30.1382 16.6152 29.2858 17.4677C28.4334 18.3201 27.9545 19.4763 27.9545 20.6818Z" fill="#4E4E4E"/>
<path fill-rule="evenodd" clip-rule="evenodd" d="M32.5 2.5C46.3068 2.5 57.5 13.6932 57.5 27.5C57.5 41.3068 46.3068 52.5 32.5 52.5C18.6932 52.5 7.5 41.3068 7.5 27.5C7.5 13.6932 18.6932 2.5 32.5 2.5ZM52.9545 27.5C52.9545 32.25 51.3341 36.6227 48.6182 40.0955C46.7108 37.5907 44.2502 35.5608 41.4286 34.1643C38.6069 32.7679 35.5006 32.0427 32.3523 32.0455C29.2447 32.0425 26.1775 32.7489 23.3842 34.1109C20.591 35.4728 18.1455 37.4544 16.2341 39.9045C14.2649 37.3218 12.939 34.3073 12.3661 31.1104C11.7933 27.9136 11.9899 24.6262 12.9398 21.5204C13.8896 18.4146 15.5654 15.5797 17.8284 13.2501C20.0915 10.9205 22.8767 9.16332 25.9537 8.12388C29.0307 7.08445 32.3109 6.79266 35.523 7.27267C38.7352 7.75267 41.7868 8.99066 44.4255 10.8842C47.0642 12.7778 49.2141 15.2724 50.6972 18.1618C52.1803 21.0512 52.9541 24.2522 52.9545 27.5ZM32.5 47.9545C37.1956 47.9616 41.7494 46.3462 45.3909 43.3818C43.9252 41.2835 41.9742 39.5703 39.7041 38.3879C37.434 37.2056 34.9118 36.5891 32.3523 36.5909C29.8246 36.5889 27.333 37.1899 25.0843 38.3441C22.8355 39.4984 20.8946 41.1724 19.4227 43.2273C23.0925 46.288 27.7214 47.9613 32.5 47.9545Z" fill="#4E4E4E"/>
</svg>
